<svg width="376" height="351" viewBox="0 0 376 351" fill="none" xmlns="http://www.w3.org/2000/svg">
<path d="M65.0572 348.24C61.1767 333.855 59.5368 318.27 60.7031 306.905C61.9683 294.574 61.7704 294.934 67.4746 294.369C84.6789 292.654 101.636 285.504 114.295 274.62C123.682 266.552 130.185 257.305 135.055 245.087C136.681 241.007 138.109 237.562 138.229 237.428C138.349 237.294 139.388 239.037 140.54 241.31C141.692 243.583 143.445 246.315 144.442 247.381L146.244 249.322L144.173 250.395C141.233 251.905 139.727 255.18 140.109 259.19C141.007 268.507 151.638 279.786 166.651 287.353C169.075 288.574 171.054 289.781 171.054 290.028C171.054 290.275 169.888 292.577 168.46 295.132C155.023 319.23 129.125 338.069 98.9217 345.713C91.4787 347.591 77.9004 349.92 70.5352 350.577L65.7994 351L65.0572 348.24ZM298.285 349.892C258.137 344.33 228.647 327.573 210.8 300.179C208.665 296.896 206.474 293.176 205.944 291.899L204.975 289.584L208.686 287.713C225.269 279.37 236.91 266.319 235.885 257.22C235.574 254.482 235.03 253.479 232.712 251.425L229.906 248.941L232.245 246.237C233.532 244.748 235.164 242.136 235.864 240.428C236.571 238.727 237.356 237.329 237.617 237.322C237.879 237.322 238.642 238.988 239.313 241.028C245.831 260.742 258.554 275.445 277.476 285.109C287.272 290.12 297.691 293.198 310.414 294.842L313.701 295.266L314.457 299.649C316.91 313.893 315.722 330.869 311.064 347.965C310.28 350.831 310.131 350.965 307.622 350.894C306.18 350.852 301.975 350.4 298.285 349.892ZM45.2375 285.998C34.3381 284.671 25.2482 282.278 13.1047 277.535C8.43962 275.714 5.65469 274.245 5.65469 273.61C5.65469 272.057 11.2811 260.382 15.7695 252.625C20.9718 243.64 29.5033 232.381 31.1149 232.381C31.3623 232.381 34.5643 235.127 38.2257 238.48C48.8706 248.221 60.5829 255.237 71.7721 258.561C78.7415 260.637 92.0795 261.18 98.2502 259.641C106.379 257.616 115.144 252.766 121.533 246.767L127.252 241.388L125.838 244.677C116.904 265.493 97.3596 280.139 72.1326 284.918C64.6825 286.33 52.0938 286.838 45.2375 285.998ZM308.032 285.701C281.003 281.826 258.872 265.98 249.824 244.028L248.658 241.204L253.507 246.018C262.759 255.209 273.107 259.888 285.477 260.467C304.017 261.335 321.193 254.009 338.278 237.936C341.522 234.88 344.484 232.381 344.858 232.381C346.371 232.381 355.362 244.155 360.409 252.745C364.339 259.422 370.361 271.923 370.375 273.42C370.375 274.062 369.986 274.747 369.499 274.951C345.848 284.932 326.374 288.334 308.032 285.701ZM180.95 283.979C169.81 279.836 160.784 274.337 155.179 268.288C150.457 263.192 148.054 258.957 149.34 257.983C149.814 257.63 153.595 256.973 157.745 256.529C161.894 256.091 167.301 255.053 169.761 254.227C174.073 252.788 178.83 249.872 178.83 248.672C178.83 248.348 177.26 246.124 175.338 243.731C169.803 236.807 168.665 227.963 173.026 225.782C175.868 224.363 178.66 225.45 182.696 229.53C187.283 234.188 188.541 234.153 193.737 229.205C197.087 226.014 198.246 225.323 200.282 225.323C203.958 225.323 204.982 226.77 204.968 231.901C204.947 236.955 203.357 241 199.589 245.602C198.204 247.282 197.25 249.11 197.455 249.661C198.409 252.138 207.958 255.449 216.963 256.423C226.195 257.425 226.894 257.616 226.894 259.098C226.894 262.881 218.448 271.711 209.895 276.871C203.922 280.471 190.612 286.019 188.018 285.984C187.043 285.97 183.862 285.066 180.95 283.979ZM78.4588 251.086C62.5691 247.896 46.2483 236.687 31.6804 218.97C18.512 202.961 8.75769 181.249 3.83811 157.038C1.73174 146.655 0.0282759 135.03 0.0141392 130.908L0 127.901L11.4861 122.31C36.6494 110.064 61.5159 101.678 86.234 97.0973C91.0475 96.2079 96.6528 95.8479 106.025 95.8267C117.78 95.7985 119.639 95.9679 124.403 97.4431C141.12 102.638 149.065 112.358 154.472 134.268C157.469 146.408 159.83 154.039 162.629 160.617C165.159 166.56 171.789 177.918 174.617 181.129C175.769 182.442 176.695 183.783 176.681 184.122C176.667 184.461 175.288 185.738 173.627 186.96C171.818 188.287 169.796 190.708 168.616 192.959C166.898 196.235 166.099 196.976 162.657 198.486C152.26 203.046 140.406 212.836 128.432 226.734C119.42 237.188 116.112 240.59 111.8 243.816C102.216 250.966 90.5457 253.515 78.4588 251.086ZM279.907 251.093C273.284 249.597 265.714 245.616 260.709 240.986C258.32 238.776 253.104 233.144 249.124 228.471C235.878 212.921 225.509 204.204 213.867 198.818C209.612 196.842 208.686 196.086 207.612 193.693C206.919 192.155 204.77 189.409 202.841 187.609C198.996 184.016 198.798 183.579 200.438 182.223C202.042 180.896 207.421 172.412 210.397 166.525C214.341 158.704 217.366 149.966 220.957 136.053C225.007 120.376 227.771 114.271 233.539 108.264C238.472 103.139 244.049 99.8007 251.634 97.4431C256.398 95.9679 258.264 95.7985 270.011 95.8197C280.529 95.8338 284.749 96.1514 291.57 97.429C315.574 101.932 340.688 110.614 365.964 123.15C377.599 128.924 376.708 127.244 374.984 140.218C370.467 174.099 360.776 198.366 343.056 220.184C330.736 235.346 314.825 246.675 300.646 250.388C294.482 251.997 285.314 252.315 279.907 251.093ZM159.321 246.618C148.103 242.75 143.353 231.831 148.358 221.441C151.595 214.707 160.586 206.942 163.399 208.446C165.188 209.406 165.06 210.316 162.099 217.749C157.865 228.393 158.508 235.049 164.643 243.957C165.838 245.687 166.813 247.289 166.813 247.508C166.813 248.305 162.848 247.839 159.321 246.618ZM209.223 247.522C209.223 247.218 210.164 245.517 211.309 243.731C217.324 234.365 218.08 228.068 214.291 218.737C211.994 213.069 211.57 210.239 212.744 208.382C213.323 207.465 213.74 207.507 216.002 208.721C220.08 210.916 225.148 216.147 227.248 220.339C232.21 230.228 229.382 239.955 220.109 244.868C216.115 246.985 209.223 248.665 209.223 247.522ZM182.717 215.518C171.825 210.5 172.143 195.754 183.233 191.124C186.675 189.684 189.849 189.762 193.32 191.371C200.494 194.689 203.3 201.846 200.112 208.735C196.917 215.653 189.383 218.589 182.717 215.518ZM183.283 178.369C181.805 176.612 179.381 173.202 177.889 170.781L175.182 166.384L175.599 159.678C176.843 139.696 176.872 127.569 175.691 121.301C173.422 109.238 169.033 98.1278 162.7 88.387C159.413 83.3402 151.828 74.1641 148.937 71.743C147.686 70.6983 144.965 68.2914 142.887 66.3926L139.098 62.948L141.346 57.3789C147.828 41.3278 164.417 20.011 182.095 5.01863L188.018 0L193.942 5.01863C211.839 20.1945 228.633 41.8077 234.662 57.4142L236.84 63.0681L233.461 66.0962C231.595 67.7691 228.987 70.0419 227.658 71.1571C220.851 76.8675 209.365 93.2504 205.668 102.518C200.225 116.177 198.063 130.809 199.356 145.208C199.738 149.479 200.24 155.987 200.473 159.678L200.89 166.384L197.907 170.972C190.217 182.802 187.976 183.939 183.283 178.369ZM166.573 145.526C166.304 144.573 165.131 139.985 163.951 135.326C159.215 116.586 155.737 109.16 148.117 101.474C142.251 95.5444 137.642 92.7633 128.983 89.8976C113.758 84.8648 97.0203 85.3448 69.8637 91.5916C65.5237 92.5869 61.6573 93.4692 61.2615 93.5398C60.2719 93.7374 58.116 86.4601 56.8013 78.5051C55.5785 71.0583 55.7906 57.5483 57.289 47.9345L58.1443 42.4289L62.1167 42.8947C107.524 48.2028 146.562 71.9265 160.897 102.906C163.823 109.238 166.488 118.351 167.471 125.395C168.326 131.564 168.397 143.811 167.591 145.879C167.089 147.149 167.018 147.121 166.573 145.526ZM208.283 146.5C207.407 145.632 207.81 129.729 208.87 123.186C213.86 92.4386 237.829 66.7244 275.115 52.1061C284.855 48.2875 301.713 44.2571 313.878 42.8383L317.808 42.3795L318.719 48.9722C320.26 60.1246 320.437 70.3807 319.235 78.1522C317.914 86.6436 316.21 92.5657 314.959 93.0527C314.45 93.2433 309.933 92.4598 304.922 91.3093C289.138 87.6812 281.257 86.6789 268.951 86.7283C259.14 86.7706 256.73 87.0177 250.757 88.5988C246.976 89.6011 241.568 91.6269 238.741 93.1021C229.185 98.1066 220.066 109.005 216.412 119.798C215.62 122.127 213.669 129.101 212.072 135.298C210.475 141.488 209.075 146.655 208.962 146.768C208.849 146.881 208.538 146.761 208.283 146.5Z" fill="white"/>
</svg>
