<svg width="384" height="88" viewBox="0 0 384 88" fill="none" xmlns="http://www.w3.org/2000/svg">
<path d="M32.4 74.2C26 74.2 20.3667 72.7333 15.5 69.8C10.6333 66.8 6.83333 62.5333 4.1 57C1.36667 51.4667 0 44.8667 0 37.2C0 29.6 1.33333 23.0333 4 17.5C6.73333 11.9 10.5333 7.6 15.4 4.6C20.2667 1.53333 25.9667 0 32.5 0C41.3 0 48.1333 2.2 53 6.6C57.8667 11 61.0333 17.1 62.5 24.9L51.2 25.5C50.2667 20.6333 48.2667 16.8333 45.2 14.1C42.1333 11.3 37.9 9.9 32.5 9.9C28.1667 9.9 24.4 11 21.2 13.2C18.0667 15.4 15.6 18.5333 13.8 22.6C12.0667 26.6667 11.2 31.5333 11.2 37.2C11.2 42.8667 12.0667 47.7333 13.8 51.8C15.6 55.8667 18.1 58.9667 21.3 61.1C24.5 63.2333 28.2 64.3 32.4 64.3C38.1333 64.3 42.5667 62.8 45.7 59.8C48.9 56.7333 50.9 52.5333 51.7 47.2L63 47.8C62.1333 53.2 60.4 57.8667 57.8 61.8C55.2 65.7333 51.7667 68.8 47.5 71C43.2333 73.1333 38.2 74.2 32.4 74.2Z" fill="white"/>
<path d="M88.7031 73.8C83.1698 73.8 78.7365 72.5333 75.4031 70C72.1365 67.4667 70.5031 63.9 70.5031 59.3C70.5031 54.7 71.8698 51.1333 74.6031 48.6C77.4031 46 81.7031 44.1333 87.5031 43L105.803 39.5C105.803 35.3667 104.836 32.3 102.903 30.3C100.97 28.2333 98.1031 27.2 94.3031 27.2C90.9031 27.2 88.2365 27.9667 86.3031 29.5C84.3698 30.9667 83.0365 33.1667 82.3031 36.1L71.4031 35.4C72.4031 30.0667 74.8698 25.8667 78.8031 22.8C82.8031 19.7333 87.9698 18.2 94.3031 18.2C101.503 18.2 106.97 20.1333 110.703 24C114.503 27.8 116.403 33.1667 116.403 40.1V60.8C116.403 62.0667 116.603 62.9667 117.003 63.5C117.47 63.9667 118.203 64.2 119.203 64.2H121.103V72.6C120.77 72.6667 120.236 72.7333 119.503 72.8C118.77 72.8667 118.003 72.9 117.203 72.9C114.936 72.9 112.97 72.5333 111.303 71.8C109.703 71.0667 108.503 69.8667 107.703 68.2C106.903 66.4667 106.503 64.1667 106.503 61.3L107.603 61.8C107.07 64.1333 105.903 66.2 104.103 68C102.37 69.8 100.136 71.2333 97.4031 72.3C94.7365 73.3 91.8365 73.8 88.7031 73.8ZM90.4031 65.4C93.6031 65.4 96.3365 64.8 98.6031 63.6C100.87 62.3333 102.636 60.6 103.903 58.4C105.17 56.2 105.803 53.7 105.803 50.9V47.5L90.2031 50.5C87.0031 51.1 84.7365 52.0667 83.4031 53.4C82.1365 54.6667 81.5031 56.3 81.5031 58.3C81.5031 60.5667 82.2698 62.3333 83.8031 63.6C85.4031 64.8 87.6031 65.4 90.4031 65.4Z" fill="white"/>
<path d="M147.719 72.6C142.652 72.6 138.919 71.4333 136.519 69.1C134.119 66.7667 132.919 63.1333 132.919 58.2V6.9H143.519V57.4C143.519 59.8667 144.052 61.5667 145.119 62.5C146.185 63.4333 147.819 63.9 150.019 63.9H157.619V72.6H147.719ZM124.819 28.1V19.4H157.619V28.1H124.819ZM180.019 72.6C174.952 72.6 171.219 71.4333 168.819 69.1C166.419 66.7667 165.219 63.1333 165.219 58.2V6.9H175.819V57.4C175.819 59.8667 176.352 61.5667 177.419 62.5C178.485 63.4333 180.119 63.9 182.319 63.9H189.919V72.6H180.019ZM157.119 28.1V19.4H189.919V28.1H157.119Z" fill="white"/>
<path d="M212.161 72.6C208.694 72.6 205.894 71.7 203.761 69.9C201.628 68.1 200.561 65.2333 200.561 61.3V1.6H211.161V60.3C211.161 61.5 211.461 62.4 212.061 63C212.728 63.6 213.661 63.9 214.861 63.9H219.061V72.6H212.161Z" fill="white"/>
<path d="M250 73.8C244.8 73.8 240.3 72.6667 236.5 70.4C232.767 68.1333 229.867 64.9 227.8 60.7C225.8 56.5 224.8 51.6 224.8 46C224.8 40.4 225.8 35.5333 227.8 31.4C229.867 27.2 232.767 23.9667 236.5 21.7C240.233 19.3667 244.633 18.2 249.7 18.2C254.5 18.2 258.733 19.3333 262.4 21.6C266.067 23.8 268.9 27 270.9 31.2C272.967 35.4 274 40.4667 274 46.4V49.1H235.8C236.067 54.3 237.433 58.2 239.9 60.8C242.433 63.4 245.833 64.7 250.1 64.7C253.233 64.7 255.833 63.9667 257.9 62.5C259.967 61.0333 261.4 59.0667 262.2 56.6L273.2 57.3C271.8 62.2333 269.033 66.2333 264.9 69.3C260.833 72.3 255.867 73.8 250 73.8ZM235.8 41.1H262.8C262.467 36.3667 261.1 32.8667 258.7 30.6C256.367 28.3333 253.367 27.2 249.7 27.2C245.9 27.2 242.767 28.4 240.3 30.8C237.9 33.1333 236.4 36.5667 235.8 41.1Z" fill="white"/>
<path d="M286.08 87.6V78.9H292.58C294.38 78.9 295.714 78.6333 296.58 78.1C297.447 77.5667 298.114 76.6667 298.58 75.4L300.28 71H296.98L277.78 19.4H288.98L303.58 61.2L317.48 19.4H328.78L307.58 78.8C306.514 81.8667 304.914 84.1 302.78 85.5C300.714 86.9 297.814 87.6 294.08 87.6H286.08Z" fill="white"/>
<path d="M350.812 73.8C345.279 73.8 340.846 72.5333 337.513 70C334.246 67.4667 332.612 63.9 332.612 59.3C332.612 54.7 333.979 51.1333 336.712 48.6C339.512 46 343.812 44.1333 349.612 43L367.913 39.5C367.913 35.3667 366.946 32.3 365.013 30.3C363.079 28.2333 360.212 27.2 356.413 27.2C353.013 27.2 350.346 27.9667 348.413 29.5C346.479 30.9667 345.146 33.1667 344.413 36.1L333.513 35.4C334.513 30.0667 336.979 25.8667 340.913 22.8C344.913 19.7333 350.079 18.2 356.413 18.2C363.613 18.2 369.079 20.1333 372.812 24C376.612 27.8 378.513 33.1667 378.513 40.1V60.8C378.513 62.0667 378.712 62.9667 379.112 63.5C379.579 63.9667 380.312 64.2 381.312 64.2H383.212V72.6C382.879 72.6667 382.346 72.7333 381.612 72.8C380.879 72.8667 380.112 72.9 379.312 72.9C377.046 72.9 375.079 72.5333 373.413 71.8C371.812 71.0667 370.612 69.8667 369.812 68.2C369.013 66.4667 368.612 64.1667 368.612 61.3L369.712 61.8C369.179 64.1333 368.012 66.2 366.212 68C364.479 69.8 362.246 71.2333 359.513 72.3C356.846 73.3 353.946 73.8 350.812 73.8ZM352.513 65.4C355.713 65.4 358.446 64.8 360.712 63.6C362.979 62.3333 364.746 60.6 366.013 58.4C367.279 56.2 367.913 53.7 367.913 50.9V47.5L352.312 50.5C349.112 51.1 346.846 52.0667 345.513 53.4C344.246 54.6667 343.612 56.3 343.612 58.3C343.612 60.5667 344.379 62.3333 345.913 63.6C347.513 64.8 349.713 65.4 352.513 65.4Z" fill="white"/>
</svg>
